<?xml version="1.0" encoding="iso-8859-1"?>
<!-- Generator: Adobe Illustrator 29.8.2, SVG Export Plug-In . SVG Version: 9.03 Build 0)  -->
<svg version="1.1" id="Layer_1" xmlns="http://www.w3.org/2000/svg" xmlns:xlink="http://www.w3.org/1999/xlink" x="0px" y="0px"
	 viewBox="0 0 200 280" style="enable-background:new 0 0 200 280;" xml:space="preserve">
<g>
	<path style="fill:#FFFFFF;" d="M30,0C13.43,0,0,13.43,0,30v161.85c0.75,6.68,7.32,22.9,27.24,23.44C53.5,216,62,226.5,61.2,250.12
		c-0.39,11.47,5.79,18.79,12.84,23.35c6.45,4.17,14.05,6.2,21.73,6.22L176,280c13.26,0,24-10.75,24-24V24c0-13.26-10.74-24-24-24H30
		z"/>
	<defs>
		<filter id="Adobe_OpacityMaskFilter" filterUnits="userSpaceOnUse" x="-1.55" y="-1.5" width="203.05" height="285.86">
			<feColorMatrix  type="matrix" values="1 0 0 0 0  0 1 0 0 0  0 0 1 0 0  0 0 0 1 0"/>
		</filter>
	</defs>
	
		<mask maskUnits="userSpaceOnUse" x="-1.55" y="-1.5" width="203.05" height="285.86" id="path-1-inside-1_5005_86_00000129188765439124332640000006939501691156163221_">
		<path style="fill-rule:evenodd;clip-rule:evenodd;fill:#FFFFFF;filter:url(#Adobe_OpacityMaskFilter);" d="M30,0
			C13.43,0,0,13.36,0,29.85v161.09c0.75,6.65,7.32,22.8,27.24,23.33c26.26,0.7,34.76,11.15,33.96,34.67
			c-0.68,19.98,18.75,27.31,27.8,29.41c0.54,0.12,0.68,0.23,0.48,0.32H176c13.26,0,24-10.69,24-23.89V23.88
			C200,10.69,189.26,0,176,0H30z"/>
	</mask>
	
		<path style="display:none;mask:url(#path-1-inside-1_5005_86_00000129188765439124332640000006939501691156163221_);fill:#FFFFFF;stroke:#000000;stroke-miterlimit:10;" d="
		M0,190.95h-1V191l0.01,0.06L0,190.95z M27.24,214.28l-0.03,0.99l0,0L27.24,214.28z M61.2,248.94l-1-0.03L61.2,248.94z M89,278.36
		l-0.23,0.97l0,0L89,278.36z M89.48,278.68l-0.41-0.91l0.41,1.9V278.68z M1,29.85C1,13.91,13.98,0.99,30,0.99V-1
		C12.88-1-1,12.81-1,29.85H1z M1,190.95V29.85h-2v161.09L1,190.95L1,190.95z M27.26,213.28c-9.65-0.26-16.01-4.29-20.07-9.02
		c-4.08-4.77-5.84-10.28-6.2-13.43L-1,191.05c0.4,3.51,2.3,9.4,6.66,14.49c4.39,5.13,11.27,9.45,21.54,9.72L27.26,213.28z
		 M62.2,248.98c0.4-11.84-1.52-20.67-7.1-26.6c-5.58-5.93-14.61-8.74-27.83-9.1l-0.05,1.99c13.04,0.35,21.4,3.12,26.43,8.47
		s6.96,13.5,6.56,25.17L62.2,248.98z M89.23,277.39c-4.46-1.03-11.42-3.35-17.16-7.82c-5.71-4.44-10.19-10.99-9.87-20.59l-2-0.07
		c-0.35,10.37,4.54,17.48,10.63,22.23c6.06,4.72,13.34,7.12,17.94,8.19L89.23,277.39z M89.89,279.59c0.07-0.03,0.18-0.09,0.29-0.18
		c0.1-0.08,0.28-0.26,0.36-0.55c0.19-0.7-0.36-1.1-0.44-1.15c-0.16-0.11-0.33-0.17-0.44-0.21c-0.13-0.04-0.27-0.08-0.42-0.12
		l-0.45,1.94c0.12,0.03,0.19,0.05,0.24,0.06c0.06,0.02,0.02,0.01-0.06-0.04c-0.04-0.03-0.15-0.11-0.24-0.26
		c-0.11-0.18-0.19-0.44-0.11-0.74c0.07-0.26,0.23-0.41,0.3-0.47c0.08-0.06,0.15-0.1,0.17-0.1L89.89,279.59z M176,277.68H89.48v1.99
		H176V277.68z M199,254.79c0,12.64-10.3,22.89-23,22.89v1.99c13.81,0,25-11.14,25-24.88L199,254.79L199,254.79z M199,23.88v230.91h2
		V23.88H199z M176,0.99c12.7,0,23,10.25,23,22.89h2C201,10.14,189.81-1,176-1V0.99z M30,0.99h146V-1H30V0.99z"/>
</g>
<path style="fill:#F3F3FA;" d="M29,224L29,224c12.7,0,23,10.3,23,23l0,0c0,12.7-10.3,23-23,23l0,0c-12.7,0-23-10.3-23-23l0,0
	C6,234.3,16.3,224,29,224z"/>
<path style="fill:none;stroke:#111013;stroke-width:2;stroke-miterlimit:10;" d="M37.83,241.62L23.2,251.81"/>
<path style="fill:none;stroke:#111013;stroke-width:2;stroke-miterlimit:10;" d="M34.02,255.29c-2.85-4.05-8.46-5.04-12.53-2.2"/>
<path style="fill:none;stroke:#111013;stroke-width:2;stroke-miterlimit:10;" d="M21.49,253.09c4.07-2.84,5.06-8.41,2.2-12.47"/>
</svg>
